<svg width="25" height="25" viewBox="0 0 25 25" fill="none" xmlns="http://www.w3.org/2000/svg">
<path d="M21.9738 24.2971C22.3917 23.6404 22.5986 22.8199 22.4918 21.9566C21.9704 17.7529 21.1306 11.1507 20.6099 7.96838C19.8184 3.12794 16.7543 0 12.4993 0C8.24417 0 5.18012 3.12794 4.38859 7.96838C3.86793 11.1515 3.02808 17.7529 2.50674 21.9566C2.40193 22.8037 2.59998 23.6081 3.00222 24.2588C3.41534 24.6596 3.88631 25 4.68533 25C6.64136 25 6.64136 22.9721 8.59671 22.9721C10.5521 22.9721 10.5521 25 12.5074 25C14.4628 25 14.4628 22.9721 16.4181 22.9721C18.3735 22.9721 18.3735 25 20.3288 25C21.1027 25 21.5689 24.6809 21.9725 24.2971H21.9738Z" fill="#E0E0E0"/>
<path d="M4.54247 15.9507L0.377227 10.8507C-0.53273 9.73675 0.337072 7.95734 1.56827 8.41395L5.42861 9.82425L4.54315 15.9507H4.54247Z" fill="#E0E0E0"/>
<path d="M20.4577 15.9507L24.6229 10.8507C25.5329 9.73675 24.6631 7.95734 23.4319 8.41395L19.5715 9.82425L20.4577 15.9507Z" fill="#E0E0E0"/>
<path d="M10.0362 7.91835C10.6959 7.91835 11.2307 7.3406 11.2307 6.6279C11.2307 5.91521 10.6959 5.33746 10.0362 5.33746C9.37657 5.33746 8.8418 5.91521 8.8418 6.6279C8.8418 7.3406 9.37657 7.91835 10.0362 7.91835Z" fill="black"/>
<path d="M15.0209 7.96321C15.6805 7.96321 16.2153 7.38546 16.2153 6.67277C16.2153 5.96007 15.6805 5.38232 15.0209 5.38232C14.3612 5.38232 13.8264 5.96007 13.8264 6.67277C13.8264 7.38546 14.3612 7.96321 15.0209 7.96321Z" fill="black"/>
<path d="M16.7871 10.1323C16.6952 9.99042 16.5284 9.9316 16.376 9.97792C14.0109 10.7551 10.9816 10.7279 8.62878 9.90807C8.47632 9.85586 8.30958 9.91395 8.21565 10.0551C8.12241 10.1956 8.12377 10.3853 8.21974 10.5242C9.18278 11.922 10.7754 12.7647 12.4803 12.7801C14.1858 12.7956 15.7914 11.9816 16.7748 10.6015C16.8728 10.464 16.8783 10.2742 16.7871 10.1323Z" fill="black"/>
<path d="M14.241 11.8155V10.4375C13.0799 10.5802 11.8671 10.5684 10.7094 10.4L10.708 12.4221V12.4302C10.708 12.4346 10.7087 12.4383 10.7087 12.4419C10.7087 12.4449 10.7094 12.4486 10.7094 12.4515C10.7128 13.4625 11.4907 14.2853 12.4592 14.2941C13.4345 14.303 14.2321 13.4824 14.2396 12.4618L14.2437 11.8155H14.2403H14.241Z" fill="#F93052"/>
</svg>
